<mxfile host="app.diagrams.net" modified="2023-05-26T06:54:46.643Z" agent="Mozilla/5.0 (Windows NT 10.0; Win64; x64) AppleWebKit/537.36 (KHTML, like Gecko) Chrome/113.0.0.0 Safari/537.36" version="21.3.3" etag="6Fxdzc1aEI6Jb_pp6tj1" type="github">
  <diagram name="Page-1" id="QIw7BrwrISptps9-Ls9B">
    <mxGraphModel>
      <root>
        <mxCell id="0" />
        <mxCell id="1" parent="0" />
      </root>
    </mxGraphModel>
  </diagram>
</mxfile>
